# Export of Level 
# from Aaro4130 OBJ Exporter v2.0
mtllib Airconditioning Unit prefab.mtl
g Airconditioning Unit
v -40.15 10.31983 32.812
v -41.66753 10.31983 32.812
v -40.15 11.562 32.812
v -41.66753 11.562 32.812
v -41.66753 10.31983 32.812
v -41.66753 10.31983 31.812
v -41.66753 11.562 32.812
v -41.66753 11.562 31.812
v -41.66753 10.31983 31.812
v -40.15 10.31983 31.812
v -41.66753 11.562 31.812
v -40.15 11.562 31.812
v -40.15 10.31983 31.812
v -40.15 10.31983 32.812
v -40.15 11.562 31.812
v -40.15 11.562 32.812
v -40.15 11.562 32.812
v -41.66753 11.562 32.812
v -40.15 11.562 31.812
v -41.66753 11.562 31.812
v -40.15 10.31983 31.812
v -41.66753 10.31983 31.812
v -40.15 10.31983 32.812
v -41.66753 10.31983 32.812
vn 0 0 0.5773503
vn 0 0 0.5773503
vn 0 0 0.5773503
vn 0 0 0.5773503
vn -0.5773503 0 0
vn -0.5773503 0 0
vn -0.5773503 0 0
vn -0.5773503 0 0
vn 0 0 -0.5773503
vn 0 0 -0.5773503
vn 0 0 -0.5773503
vn 0 0 -0.5773503
vn 0.5773503 0 0
vn 0.5773503 0 0
vn 0.5773503 0 0
vn 0.5773503 0 0
vn 0 0.5773503 0
vn 0 0.5773503 0
vn 0 0.5773503 0
vn 0 0.5773503 0
vn 0 -0.5773503 0
vn 0 -0.5773503 0
vn 0 -0.5773503 0
vn 0 -0.5773503 0
vt 1.517525 0
vt 0 0
vt 1.517525 1.242168
vt 0 1.242168
vt 1 0
vt 0 0
vt 1 1.242168
vt 0 1.242168
vt 1.517525 0
vt 0 0
vt 1.517525 1.242168
vt 0 1.242168
vt 1 0
vt 0 0
vt 1 1.242168
vt 0 1.242168
vt 0 1
vt 1.517525 1
vt 0 0
vt 1.517525 0
vt 1.517525 0
vt 0 0
vt 1.517525 1
vt 0 1
usemtl Default_Prototype
f 3/3/3 2/2/2 1/1/1
f 3/3/3 4/4/4 2/2/2
f 7/7/7 6/6/6 5/5/5
f 7/7/7 8/8/8 6/6/6
f 11/11/11 10/10/10 9/9/9
f 11/11/11 12/12/12 10/10/10
f 15/15/15 14/14/14 13/13/13
f 15/15/15 16/16/16 14/14/14
f 19/19/19 18/18/18 17/17/17
f 19/19/19 20/20/20 18/18/18
f 23/23/23 22/22/22 21/21/21
f 23/23/23 24/24/24 22/22/22
