# Export of Level 
# from Aaro4130 OBJ Exporter v2.0
mtllib Bench Prefab.mtl
g Cube (9)
v -41.46276 0.9160001 32.8539
v -41.54302 0.9160001 32.8539
v -41.46276 1.472081 32.8539
v -41.54302 1.472081 32.8539
v -41.54302 0.9160001 32.8539
v -41.54302 0.9160001 32.76384
v -41.54302 1.472081 32.8539
v -41.54302 1.472081 32.76384
v -41.54302 0.9160001 32.76384
v -41.46276 0.9160001 32.76384
v -41.54302 1.472081 32.76384
v -41.46276 1.472081 32.76384
v -41.46276 0.9160001 32.76384
v -41.46276 0.9160001 32.8539
v -41.46276 1.472081 32.76384
v -41.46276 1.472081 32.8539
v -41.46276 1.472081 32.8539
v -41.54302 1.472081 32.8539
v -41.46276 1.472081 32.76384
v -41.54302 1.472081 32.76384
v -41.46276 0.9160001 32.76384
v -41.54302 0.9160001 32.76384
v -41.46276 0.9160001 32.8539
v -41.54302 0.9160001 32.8539
vn 0 0 0.5773503
vn 0 0 0.5773503
vn 0 0 0.5773503
vn 0 0 0.5773503
vn -0.5773503 0 0
vn -0.5773503 0 0
vn -0.5773503 0 0
vn -0.5773503 0 0
vn 0 0 -0.5773503
vn 0 0 -0.5773503
vn 0 0 -0.5773503
vn 0 0 -0.5773503
vn 0.5773503 0 0
vn 0.5773503 0 0
vn 0.5773503 0 0
vn 0.5773503 0 0
vn 0 0.5773503 0
vn 0 0.5773503 0
vn 0 0.5773503 0
vn 0 0.5773503 0
vn 0 -0.5773503 0
vn 0 -0.5773503 0
vn 0 -0.5773503 0
vn 0 -0.5773503 0
vt 0.0802536 0
vt 0 0
vt 0.0802536 0.5560813
vt 0 0.5560813
vt 0.09005356 0
vt 0 0
vt 0.09005356 0.5560813
vt 0 0.5560813
vt 0.0802536 0
vt 0 0
vt 0.0802536 0.5560813
vt 0 0.5560813
vt 0.09005356 0
vt 0 0
vt 0.09005356 0.5560813
vt 0 0.5560813
vt 0 0.09005356
vt 0.0802536 0.09005356
vt 0 0
vt 0.0802536 0
vt 0.0802536 0
vt 0 0
vt 0.0802536 0.09005356
vt 0 0.09005356
usemtl Default_Prototype
f 3/3/3 2/2/2 1/1/1
f 3/3/3 4/4/4 2/2/2
f 7/7/7 6/6/6 5/5/5
f 7/7/7 8/8/8 6/6/6
f 11/11/11 10/10/10 9/9/9
f 11/11/11 12/12/12 10/10/10
f 15/15/15 14/14/14 13/13/13
f 15/15/15 16/16/16 14/14/14
f 19/19/19 18/18/18 17/17/17
f 19/19/19 20/20/20 18/18/18
f 23/23/23 22/22/22 21/21/21
f 23/23/23 24/24/24 22/22/22
g Cube (10)
v -39.04676 0.9160001 32.8539
v -39.12702 0.9160001 32.8539
v -39.04676 1.472081 32.8539
v -39.12702 1.472081 32.8539
v -39.12702 0.9160001 32.8539
v -39.12702 0.9160001 32.76384
v -39.12702 1.472081 32.8539
v -39.12702 1.472081 32.76384
v -39.12702 0.9160001 32.76384
v -39.04676 0.9160001 32.76384
v -39.12702 1.472081 32.76384
v -39.04676 1.472081 32.76384
v -39.04676 0.9160001 32.76384
v -39.04676 0.9160001 32.8539
v -39.04676 1.472081 32.76384
v -39.04676 1.472081 32.8539
v -39.04676 1.472081 32.8539
v -39.12702 1.472081 32.8539
v -39.04676 1.472081 32.76384
v -39.12702 1.472081 32.76384
v -39.04676 0.9160001 32.76384
v -39.12702 0.9160001 32.76384
v -39.04676 0.9160001 32.8539
v -39.12702 0.9160001 32.8539
vn 0 0 0.5773503
vn 0 0 0.5773503
vn 0 0 0.5773503
vn 0 0 0.5773503
vn -0.5773503 0 0
vn -0.5773503 0 0
vn -0.5773503 0 0
vn -0.5773503 0 0
vn 0 0 -0.5773503
vn 0 0 -0.5773503
vn 0 0 -0.5773503
vn 0 0 -0.5773503
vn 0.5773503 0 0
vn 0.5773503 0 0
vn 0.5773503 0 0
vn 0.5773503 0 0
vn 0 0.5773503 0
vn 0 0.5773503 0
vn 0 0.5773503 0
vn 0 0.5773503 0
vn 0 -0.5773503 0
vn 0 -0.5773503 0
vn 0 -0.5773503 0
vn 0 -0.5773503 0
vt 0.0802536 0
vt 0 0
vt 0.0802536 0.5560813
vt 0 0.5560813
vt 0.09005356 0
vt 0 0
vt 0.09005356 0.5560813
vt 0 0.5560813
vt 0.0802536 0
vt 0 0
vt 0.0802536 0.5560813
vt 0 0.5560813
vt 0.09005356 0
vt 0 0
vt 0.09005356 0.5560813
vt 0 0.5560813
vt 0 0.09005356
vt 0.0802536 0.09005356
vt 0 0
vt 0.0802536 0
vt 0.0802536 0
vt 0 0
vt 0.0802536 0.09005356
vt 0 0.09005356
usemtl Default_Prototype
f 27/27/27 26/26/26 25/25/25
f 27/27/27 28/28/28 26/26/26
f 31/31/31 30/30/30 29/29/29
f 31/31/31 32/32/32 30/30/30
f 35/35/35 34/34/34 33/33/33
f 35/35/35 36/36/36 34/34/34
f 39/39/39 38/38/38 37/37/37
f 39/39/39 40/40/40 38/38/38
f 43/43/43 42/42/42 41/41/41
f 43/43/43 44/44/44 42/42/42
f 47/47/47 46/46/46 45/45/45
f 47/47/47 48/48/48 46/46/46
g Cube
v -41.46276 0.9160001 31.9529
v -41.54302 0.9160001 31.9529
v -41.46276 1.472081 31.9529
v -41.54302 1.472081 31.9529
v -41.54302 0.9160001 31.9529
v -41.54302 0.9160001 31.86284
v -41.54302 1.472081 31.9529
v -41.54302 1.472081 31.86284
v -41.54302 0.9160001 31.86284
v -41.46276 0.9160001 31.86284
v -41.54302 1.472081 31.86284
v -41.46276 1.472081 31.86284
v -41.46276 0.9160001 31.86284
v -41.46276 0.9160001 31.9529
v -41.46276 1.472081 31.86284
v -41.46276 1.472081 31.9529
v -41.46276 1.472081 31.9529
v -41.54302 1.472081 31.9529
v -41.46276 1.472081 31.86284
v -41.54302 1.472081 31.86284
v -41.46276 0.9160001 31.86284
v -41.54302 0.9160001 31.86284
v -41.46276 0.9160001 31.9529
v -41.54302 0.9160001 31.9529
vn 0 0 0.5773503
vn 0 0 0.5773503
vn 0 0 0.5773503
vn 0 0 0.5773503
vn -0.5773503 0 0
vn -0.5773503 0 0
vn -0.5773503 0 0
vn -0.5773503 0 0
vn 0 0 -0.5773503
vn 0 0 -0.5773503
vn 0 0 -0.5773503
vn 0 0 -0.5773503
vn 0.5773503 0 0
vn 0.5773503 0 0
vn 0.5773503 0 0
vn 0.5773503 0 0
vn 0 0.5773503 0
vn 0 0.5773503 0
vn 0 0.5773503 0
vn 0 0.5773503 0
vn 0 -0.5773503 0
vn 0 -0.5773503 0
vn 0 -0.5773503 0
vn 0 -0.5773503 0
vt 0.0802536 0
vt 0 0
vt 0.0802536 0.5560813
vt 0 0.5560813
vt 0.09005356 0
vt 0 0
vt 0.09005356 0.5560813
vt 0 0.5560813
vt 0.0802536 0
vt 0 0
vt 0.0802536 0.5560813
vt 0 0.5560813
vt 0.09005356 0
vt 0 0
vt 0.09005356 0.5560813
vt 0 0.5560813
vt 0 0.09005356
vt 0.0802536 0.09005356
vt 0 0
vt 0.0802536 0
vt 0.0802536 0
vt 0 0
vt 0.0802536 0.09005356
vt 0 0.09005356
usemtl Default_Prototype
f 51/51/51 50/50/50 49/49/49
f 51/51/51 52/52/52 50/50/50
f 55/55/55 54/54/54 53/53/53
f 55/55/55 56/56/56 54/54/54
f 59/59/59 58/58/58 57/57/57
f 59/59/59 60/60/60 58/58/58
f 63/63/63 62/62/62 61/61/61
f 63/63/63 64/64/64 62/62/62
f 67/67/67 66/66/66 65/65/65
f 67/67/67 68/68/68 66/66/66
f 71/71/71 70/70/70 69/69/69
f 71/71/71 72/72/72 70/70/70
g Bench Prefab
v -39.04232 1.373 32.86
v -41.54248 1.373 32.86
v -39.04232 1.710368 32.86
v -41.54248 1.710368 32.86
v -41.54248 1.373 32.86
v -41.54248 1.373 31.86
v -41.54248 1.710368 32.86
v -41.54248 1.710368 31.86
v -41.54248 1.373 31.86
v -39.04232 1.373 31.86
v -41.54248 1.710368 31.86
v -39.04232 1.710368 31.86
v -39.04232 1.373 31.86
v -39.04232 1.373 32.86
v -39.04232 1.710368 31.86
v -39.04232 1.710368 32.86
v -39.04232 1.710368 32.86
v -41.54248 1.710368 32.86
v -39.04232 1.710368 31.86
v -41.54248 1.710368 31.86
v -39.04232 1.373 31.86
v -41.54248 1.373 31.86
v -39.04232 1.373 32.86
v -41.54248 1.373 32.86
vn 0 0 0.5773503
vn 0 0 0.5773503
vn 0 0 0.5773503
vn 0 0 0.5773503
vn -0.5773503 0 0
vn -0.5773503 0 0
vn -0.5773503 0 0
vn -0.5773503 0 0
vn 0 0 -0.5773503
vn 0 0 -0.5773503
vn 0 0 -0.5773503
vn 0 0 -0.5773503
vn 0.5773503 0 0
vn 0.5773503 0 0
vn 0.5773503 0 0
vn 0.5773503 0 0
vn 0 0.5773503 0
vn 0 0.5773503 0
vn 0 0.5773503 0
vn 0 0.5773503 0
vn 0 -0.5773503 0
vn 0 -0.5773503 0
vn 0 -0.5773503 0
vn 0 -0.5773503 0
vt 2.50016 0
vt 0 0
vt 2.50016 0.3373678
vt 0 0.3373678
vt 1 0
vt 0 0
vt 1 0.3373678
vt 0 0.3373678
vt 2.50016 0
vt 0 0
vt 2.50016 0.3373678
vt 0 0.3373678
vt 1 0
vt 0 0
vt 1 0.3373678
vt 0 0.3373678
vt 0 1
vt 2.50016 1
vt 0 0
vt 2.50016 0
vt 2.50016 0
vt 0 0
vt 2.50016 1
vt 0 1
usemtl Default_Prototype
f 75/75/75 74/74/74 73/73/73
f 75/75/75 76/76/76 74/74/74
f 79/79/79 78/78/78 77/77/77
f 79/79/79 80/80/80 78/78/78
f 83/83/83 82/82/82 81/81/81
f 83/83/83 84/84/84 82/82/82
f 87/87/87 86/86/86 85/85/85
f 87/87/87 88/88/88 86/86/86
f 91/91/91 90/90/90 89/89/89
f 91/91/91 92/92/92 90/90/90
f 95/95/95 94/94/94 93/93/93
f 95/95/95 96/96/96 94/94/94
g Cube (11)
v -39.05077 0.9160001 31.94889
v -39.13102 0.9160001 31.94889
v -39.05077 1.472081 31.94889
v -39.13102 1.472081 31.94889
v -39.13102 0.9160001 31.94889
v -39.13102 0.9160001 31.85884
v -39.13102 1.472081 31.94889
v -39.13102 1.472081 31.85884
v -39.13102 0.9160001 31.85884
v -39.05077 0.9160001 31.85884
v -39.13102 1.472081 31.85884
v -39.05077 1.472081 31.85884
v -39.05077 0.9160001 31.85884
v -39.05077 0.9160001 31.94889
v -39.05077 1.472081 31.85884
v -39.05077 1.472081 31.94889
v -39.05077 1.472081 31.94889
v -39.13102 1.472081 31.94889
v -39.05077 1.472081 31.85884
v -39.13102 1.472081 31.85884
v -39.05077 0.9160001 31.85884
v -39.13102 0.9160001 31.85884
v -39.05077 0.9160001 31.94889
v -39.13102 0.9160001 31.94889
vn 0 0 0.5773503
vn 0 0 0.5773503
vn 0 0 0.5773503
vn 0 0 0.5773503
vn -0.5773503 0 0
vn -0.5773503 0 0
vn -0.5773503 0 0
vn -0.5773503 0 0
vn 0 0 -0.5773503
vn 0 0 -0.5773503
vn 0 0 -0.5773503
vn 0 0 -0.5773503
vn 0.5773503 0 0
vn 0.5773503 0 0
vn 0.5773503 0 0
vn 0.5773503 0 0
vn 0 0.5773503 0
vn 0 0.5773503 0
vn 0 0.5773503 0
vn 0 0.5773503 0
vn 0 -0.5773503 0
vn 0 -0.5773503 0
vn 0 -0.5773503 0
vn 0 -0.5773503 0
vt 0.0802536 0
vt 0 0
vt 0.0802536 0.5560813
vt 0 0.5560813
vt 0.09005356 0
vt 0 0
vt 0.09005356 0.5560813
vt 0 0.5560813
vt 0.0802536 0
vt 0 0
vt 0.0802536 0.5560813
vt 0 0.5560813
vt 0.09005356 0
vt 0 0
vt 0.09005356 0.5560813
vt 0 0.5560813
vt 0 0.09005356
vt 0.0802536 0.09005356
vt 0 0
vt 0.0802536 0
vt 0.0802536 0
vt 0 0
vt 0.0802536 0.09005356
vt 0 0.09005356
usemtl Default_Prototype
f 99/99/99 98/98/98 97/97/97
f 99/99/99 100/100/100 98/98/98
f 103/103/103 102/102/102 101/101/101
f 103/103/103 104/104/104 102/102/102
f 107/107/107 106/106/106 105/105/105
f 107/107/107 108/108/108 106/106/106
f 111/111/111 110/110/110 109/109/109
f 111/111/111 112/112/112 110/110/110
f 115/115/115 114/114/114 113/113/113
f 115/115/115 116/116/116 114/114/114
f 119/119/119 118/118/118 117/117/117
f 119/119/119 120/120/120 118/118/118
g Cube
v -39.04456 1.665 32.865
v -41.54096 1.665 32.865
v -39.04456 2.380305 32.865
v -41.54096 2.380305 32.865
v -41.54096 1.665 32.865
v -41.54096 1.665 32.54191
v -41.54096 2.380305 32.865
v -41.54096 2.380305 32.54191
v -41.54096 1.665 32.54191
v -39.04456 1.665 32.54191
v -41.54096 2.380305 32.54191
v -39.04456 2.380305 32.54191
v -39.04456 1.665 32.54191
v -39.04456 1.665 32.865
v -39.04456 2.380305 32.54191
v -39.04456 2.380305 32.865
v -39.04456 2.380305 32.865
v -41.54096 2.380305 32.865
v -39.04456 2.380305 32.54191
v -41.54096 2.380305 32.54191
v -39.04456 1.665 32.54191
v -41.54096 1.665 32.54191
v -39.04456 1.665 32.865
v -41.54096 1.665 32.865
vn 0 0 0.5773502
vn 0 0 0.5773502
vn 0 0 0.5773502
vn 0 0 0.5773502
vn -0.5773503 0 0
vn -0.5773503 0 0
vn -0.5773503 0 0
vn -0.5773503 0 0
vn 0 0 -0.5773502
vn 0 0 -0.5773502
vn 0 0 -0.5773502
vn 0 0 -0.5773502
vn 0.5773503 0 0
vn 0.5773503 0 0
vn 0.5773503 0 0
vn 0.5773503 0 0
vn 0 0.5773503 0
vn 0 0.5773503 0
vn 0 0.5773503 0
vn 0 0.5773503 0
vn 0 -0.5773503 0
vn 0 -0.5773503 0
vn 0 -0.5773503 0
vn 0 -0.5773503 0
vt 2.496399 0
vt 0 0
vt 2.496399 0.7153051
vt 0 0.7153051
vt 0.3230915 0
vt 0 0
vt 0.3230915 0.7153051
vt 0 0.7153051
vt 2.496399 0
vt 0 0
vt 2.496399 0.7153051
vt 0 0.7153051
vt 0.3230915 0
vt 0 0
vt 0.3230915 0.7153051
vt 0 0.7153051
vt 0 0.3230915
vt 2.496399 0.3230915
vt 0 0
vt 2.496399 0
vt 2.496399 0
vt 0 0
vt 2.496399 0.3230915
vt 0 0.3230915
usemtl Default_Prototype
f 123/123/123 122/122/122 121/121/121
f 123/123/123 124/124/124 122/122/122
f 127/127/127 126/126/126 125/125/125
f 127/127/127 128/128/128 126/126/126
f 131/131/131 130/130/130 129/129/129
f 131/131/131 132/132/132 130/130/130
f 135/135/135 134/134/134 133/133/133
f 135/135/135 136/136/136 134/134/134
f 139/139/139 138/138/138 137/137/137
f 139/139/139 140/140/140 138/138/138
f 143/143/143 142/142/142 141/141/141
f 143/143/143 144/144/144 142/142/142
