# Export of Level 
# from Aaro4130 OBJ Exporter v2.0
mtllib Building 2 greybox.mtl
g Building 2
v -23.18 1 20.65
v -40.31712 1 20.65
v -23.18 27.68184 20.65
v -40.31712 27.68184 20.65
v -40.31712 1 20.65
v -40.31712 1 8.27573
v -40.31712 27.68184 20.65
v -40.31712 27.68184 8.27573
v -40.31712 1 8.27573
v -23.18 1 8.27573
v -40.31712 27.68184 8.27573
v -23.18 27.68184 8.27573
v -23.18 1 8.27573
v -23.18 1 20.65
v -23.18 27.68184 8.27573
v -23.18 27.68184 20.65
v -23.18 27.68184 20.65
v -40.31712 27.68184 20.65
v -23.18 27.68184 8.27573
v -40.31712 27.68184 8.27573
v -23.18 1 8.27573
v -40.31712 1 8.27573
v -23.18 1 20.65
v -40.31712 1 20.65
vn 0 0 0.5773503
vn 0 0 0.5773503
vn 0 0 0.5773503
vn 0 0 0.5773503
vn -0.5773503 0 0
vn -0.5773503 0 0
vn -0.5773503 0 0
vn -0.5773503 0 0
vn 0 0 -0.5773503
vn 0 0 -0.5773503
vn 0 0 -0.5773503
vn 0 0 -0.5773503
vn 0.5773503 0 0
vn 0.5773503 0 0
vn 0.5773503 0 0
vn 0.5773503 0 0
vn 0 0.5773503 0
vn 0 0.5773503 0
vn 0 0.5773503 0
vn 0 0.5773503 0
vn 0 -0.5773503 0
vn 0 -0.5773503 0
vn 0 -0.5773503 0
vn 0 -0.5773503 0
vt 17.13712 0
vt 0 0
vt 17.13712 26.68184
vt 0 26.68184
vt 12.37427 0
vt 0 0
vt 12.37427 26.68184
vt 0 26.68184
vt 17.13712 0
vt 0 0
vt 17.13712 26.68184
vt 0 26.68184
vt 12.37427 0
vt 0 0
vt 12.37427 26.68184
vt 0 26.68184
vt 0 12.37427
vt 17.13712 12.37427
vt 0 0
vt 17.13712 0
vt 17.13712 0
vt 0 0
vt 17.13712 12.37427
vt 0 12.37427
usemtl Default_Prototype
f 3/3/3 2/2/2 1/1/1
f 3/3/3 4/4/4 2/2/2
f 7/7/7 6/6/6 5/5/5
f 7/7/7 8/8/8 6/6/6
f 11/11/11 10/10/10 9/9/9
f 11/11/11 12/12/12 10/10/10
f 15/15/15 14/14/14 13/13/13
f 15/15/15 16/16/16 14/14/14
f 19/19/19 18/18/18 17/17/17
f 19/19/19 20/20/20 18/18/18
f 23/23/23 22/22/22 21/21/21
f 23/23/23 24/24/24 22/22/22
g Overhead (1)
v -40.29779 7.517168 20.68
v -23.18217 7.517168 20.68
v -40.29779 10.12 20.68
v -23.18217 10.12 20.68
v -23.18217 7.517168 20.68
v -23.18217 7.753195 22.02394
v -23.18217 10.12 20.68
v -23.18217 9.386454 22.84035
v -23.18217 7.753195 22.02394
v -40.29779 7.753195 22.02394
v -23.18217 9.386454 22.84035
v -40.29779 9.386454 22.84035
v -40.29779 7.753195 22.02394
v -40.29779 7.517168 20.68
v -40.29779 9.386454 22.84035
v -40.29779 10.12 20.68
v -40.29779 10.12 20.68
v -23.18217 10.12 20.68
v -40.29779 9.386454 22.84035
v -23.18217 9.386454 22.84035
v -40.29779 7.753195 22.02394
v -23.18217 7.753195 22.02394
v -40.29779 7.517168 20.68
v -23.18217 7.517168 20.68
vn 0 0 -0.5773503
vn 0 0 -0.5773503
vn 0 0 -0.5773503
vn 0 0 -0.5773503
vn 0.5773503 0 0
vn 0.5773503 0 0
vn 0.5773503 0 0
vn 0.5773503 0 0
vn 0 -0.2581453 0.5164245
vn 0 -0.2581453 0.5164245
vn 0 -0.2581453 0.5164245
vn 0 -0.2581453 0.5164245
vn -0.5773503 0 0
vn -0.5773503 0 0
vn -0.5773503 0 0
vn -0.5773503 0 0
vn 0 0.5466946 0.1856296
vn 0 0.5466946 0.1856296
vn 0 0.5466946 0.1856296
vn 0 0.5466946 0.1856296
vn 0 -0.5686473 0.09986778
vn 0 -0.5686473 0.09986778
vn 0 -0.5686473 0.09986778
vn 0 -0.5686473 0.09986778
vt 17.11562 0
vt 0 0
vt 17.11562 2.602832
vt 0 2.602832
vt 2.160355 0
vt 0.8164177 0.2360268
vt 2.160355 2.602832
vt 0 1.869286
vt 17.11562 0
vt 0 0
vt 17.11562 1.825944
vt 0 1.825944
vt 1.343937 0.2360268
vt 0 0
vt 2.160355 1.869286
vt 0 2.602832
vt 0 2.281496
vt 17.11562 2.281496
vt 0 0
vt 17.11562 0
vt 17.11562 0
vt 0 0
vt 17.11562 1.364505
vt 0 1.364505
usemtl Default_Prototype
f 27/27/27 26/26/26 25/25/25
f 27/27/27 28/28/28 26/26/26
f 31/31/31 30/30/30 29/29/29
f 31/31/31 32/32/32 30/30/30
f 35/35/35 34/34/34 33/33/33
f 35/35/35 36/36/36 34/34/34
f 39/39/39 38/38/38 37/37/37
f 39/39/39 40/40/40 38/38/38
f 43/43/43 42/42/42 41/41/41
f 43/43/43 44/44/44 42/42/42
f 47/47/47 46/46/46 45/45/45
f 47/47/47 48/48/48 46/46/46
