# Export of Level 
# from Aaro4130 OBJ Exporter v2.0
mtllib sign.mtl
g Sign Post 1
v -50.25325 8.936001 -2.879508
v -50.308 8.936001 -2.879508
v -50.25325 8.936001 -2.958722
v -50.308 8.936001 -2.958722
v -50.308 8.936001 -2.879508
v -50.308 6.355185 -2.879506
v -50.308 8.936001 -2.958722
v -50.308 6.355185 -2.95872
v -50.308 6.355185 -2.879506
v -50.25325 6.355185 -2.879506
v -50.308 6.355185 -2.95872
v -50.25325 6.355185 -2.95872
v -50.25325 6.355185 -2.879506
v -50.25325 8.936001 -2.879508
v -50.25325 6.355185 -2.95872
v -50.25325 8.936001 -2.958722
v -50.25325 8.936001 -2.958722
v -50.308 8.936001 -2.958722
v -50.25325 6.355185 -2.95872
v -50.308 6.355185 -2.95872
v -50.25325 6.355185 -2.879506
v -50.308 6.355185 -2.879506
v -50.25325 8.936001 -2.879508
v -50.308 8.936001 -2.879508
vn 0 0.5773503 -3.441276E-07
vn 0 0.5773503 -3.441276E-07
vn 0 0.5773503 -3.441276E-07
vn 0 0.5773503 -3.441276E-07
vn -0.5773503 0 0
vn -0.5773503 0 0
vn -0.5773503 0 0
vn -0.5773503 0 0
vn 0 -0.5773502 3.441275E-07
vn 0 -0.5773502 3.441275E-07
vn 0 -0.5773502 3.441275E-07
vn 0 -0.5773502 3.441275E-07
vn 0.5773503 0 0
vn 0.5773503 0 0
vn 0.5773503 0 0
vn 0.5773503 0 0
vn 0 -4.508001E-07 -0.5773503
vn 0 -4.508001E-07 -0.5773503
vn 0 -4.508001E-07 -0.5773503
vn 0 -4.508001E-07 -0.5773503
vn 0 4.974693E-07 0.5773503
vn 0 4.974693E-07 0.5773503
vn 0 4.974693E-07 0.5773503
vn 0 4.974693E-07 0.5773503
vt 0.05474472 0
vt 0 0
vt 0.05474472 0.07921362
vt 0 0.07921362
vt 2.580816 6.854534E-07
vt 0 0
vt 2.580816 0.0792143
vt 0 0.07921383
vt 0.05474472 0
vt 0 0
vt 0.05474472 0.07921383
vt 0 0.07921383
vt 2.580816 0
vt 0 6.854534E-07
vt 2.580816 0.07921383
vt 0 0.0792143
vt 0 2.580816
vt 0.05474472 2.580816
vt 0 0
vt 0.05474472 0
vt 0.05474472 0
vt 0 0
vt 0.05474472 2.580816
vt 0 2.580816
usemtl Default_Prototype
f 3/3/3 2/2/2 1/1/1
f 3/3/3 4/4/4 2/2/2
f 7/7/7 6/6/6 5/5/5
f 7/7/7 8/8/8 6/6/6
f 11/11/11 10/10/10 9/9/9
f 11/11/11 12/12/12 10/10/10
f 15/15/15 14/14/14 13/13/13
f 15/15/15 16/16/16 14/14/14
f 19/19/19 18/18/18 17/17/17
f 19/19/19 20/20/20 18/18/18
f 23/23/23 22/22/22 21/21/21
f 23/23/23 24/24/24 22/22/22
g Sign
v -50.22 5.182548 -1.434949
v -50.38403 5.182548 -1.434949
v -50.22 7.604498 -1.434949
v -50.38403 7.604498 -1.434949
v -50.38403 5.182548 -1.434949
v -50.38403 5.182548 -2.869
v -50.38403 7.604498 -1.434949
v -50.38403 7.604498 -2.869
v -50.38403 5.182548 -2.869
v -50.22 5.182548 -2.869
v -50.38403 7.604498 -2.869
v -50.22 7.604498 -2.869
v -50.22 5.182548 -2.869
v -50.22 5.182548 -1.434949
v -50.22 7.604498 -2.869
v -50.22 7.604498 -1.434949
v -50.22 7.604498 -1.434949
v -50.38403 7.604498 -1.434949
v -50.22 7.604498 -2.869
v -50.38403 7.604498 -2.869
v -50.22 5.182548 -2.869
v -50.38403 5.182548 -2.869
v -50.22 5.182548 -1.434949
v -50.38403 5.182548 -1.434949
vn 0 0 0.5773502
vn 0 0 0.5773502
vn 0 0 0.5773502
vn 0 0 0.5773502
vn -0.5773503 0 0
vn -0.5773503 0 0
vn -0.5773503 0 0
vn -0.5773503 0 0
vn 0 0 -0.5773502
vn 0 0 -0.5773502
vn 0 0 -0.5773502
vn 0 0 -0.5773502
vn 0.5773503 0 0
vn 0.5773503 0 0
vn 0.5773503 0 0
vn 0.5773503 0 0
vn 0 0.5773503 0
vn 0 0.5773503 0
vn 0 0.5773503 0
vn 0 0.5773503 0
vn 0 -0.5773503 0
vn 0 -0.5773503 0
vn 0 -0.5773503 0
vn 0 -0.5773503 0
vt 0.1640244 0
vt 0 0
vt 0.1640244 2.42195
vt 0 2.42195
vt 1.434051 0
vt 0 0
vt 1.434051 2.42195
vt 0 2.42195
vt 0.1640244 0
vt 0 0
vt 0.1640244 2.42195
vt 0 2.42195
vt 1.434051 0
vt 0 0
vt 1.434051 2.42195
vt 0 2.42195
vt 0 1.434051
vt 0.1640244 1.434051
vt 0 0
vt 0.1640244 0
vt 0.1640244 0
vt 0 0
vt 0.1640244 1.434051
vt 0 1.434051
usemtl Default_Prototype
f 27/27/27 26/26/26 25/25/25
f 27/27/27 28/28/28 26/26/26
f 31/31/31 30/30/30 29/29/29
f 31/31/31 32/32/32 30/30/30
f 35/35/35 34/34/34 33/33/33
f 35/35/35 36/36/36 34/34/34
f 39/39/39 38/38/38 37/37/37
f 39/39/39 40/40/40 38/38/38
f 43/43/43 42/42/42 41/41/41
f 43/43/43 44/44/44 42/42/42
f 47/47/47 46/46/46 45/45/45
f 47/47/47 48/48/48 46/46/46
g Sign Post 2
v -50.25325 8.939 -1.391508
v -50.308 8.939 -1.391508
v -50.25325 8.939 -1.470722
v -50.308 8.939 -1.470722
v -50.308 8.939 -1.391508
v -50.308 6.358184 -1.391506
v -50.308 8.939 -1.470722
v -50.308 6.358184 -1.47072
v -50.308 6.358184 -1.391506
v -50.25325 6.358184 -1.391506
v -50.308 6.358184 -1.47072
v -50.25325 6.358184 -1.47072
v -50.25325 6.358184 -1.391506
v -50.25325 8.939 -1.391508
v -50.25325 6.358184 -1.47072
v -50.25325 8.939 -1.470722
v -50.25325 8.939 -1.470722
v -50.308 8.939 -1.470722
v -50.25325 6.358184 -1.47072
v -50.308 6.358184 -1.47072
v -50.25325 6.358184 -1.391506
v -50.308 6.358184 -1.391506
v -50.25325 8.939 -1.391508
v -50.308 8.939 -1.391508
vn 0 0.5773503 -3.441276E-07
vn 0 0.5773503 -3.441276E-07
vn 0 0.5773503 -3.441276E-07
vn 0 0.5773503 -3.441276E-07
vn -0.5773503 0 0
vn -0.5773503 0 0
vn -0.5773503 0 0
vn -0.5773503 0 0
vn 0 -0.5773502 3.441275E-07
vn 0 -0.5773502 3.441275E-07
vn 0 -0.5773502 3.441275E-07
vn 0 -0.5773502 3.441275E-07
vn 0.5773503 0 0
vn 0.5773503 0 0
vn 0.5773503 0 0
vn 0.5773503 0 0
vn 0 -4.508001E-07 -0.5773503
vn 0 -4.508001E-07 -0.5773503
vn 0 -4.508001E-07 -0.5773503
vn 0 -4.508001E-07 -0.5773503
vn 0 4.974693E-07 0.5773503
vn 0 4.974693E-07 0.5773503
vn 0 4.974693E-07 0.5773503
vn 0 4.974693E-07 0.5773503
vt 0.05474472 0
vt 0 0
vt 0.05474472 0.07921362
vt 0 0.07921362
vt 2.580816 6.854534E-07
vt 0 0
vt 2.580816 0.0792143
vt 0 0.07921383
vt 0.05474472 0
vt 0 0
vt 0.05474472 0.07921383
vt 0 0.07921383
vt 2.580816 0
vt 0 6.854534E-07
vt 2.580816 0.07921383
vt 0 0.0792143
vt 0 2.580816
vt 0.05474472 2.580816
vt 0 0
vt 0.05474472 0
vt 0.05474472 0
vt 0 0
vt 0.05474472 2.580816
vt 0 2.580816
usemtl Default_Prototype
f 51/51/51 50/50/50 49/49/49
f 51/51/51 52/52/52 50/50/50
f 55/55/55 54/54/54 53/53/53
f 55/55/55 56/56/56 54/54/54
f 59/59/59 58/58/58 57/57/57
f 59/59/59 60/60/60 58/58/58
f 63/63/63 62/62/62 61/61/61
f 63/63/63 64/64/64 62/62/62
f 67/67/67 66/66/66 65/65/65
f 67/67/67 68/68/68 66/66/66
f 71/71/71 70/70/70 69/69/69
f 71/71/71 72/72/72 70/70/70
g Sign Main Post
v -50.25325 8.940509 -0.008999944
v -50.308 8.940509 -0.008999944
v -50.25325 9.019722 -0.008999944
v -50.308 9.019722 -0.008999944
v -50.308 8.940509 -0.008999944
v -50.308 8.940509 -3.054349
v -50.308 9.019722 -0.008999944
v -50.308 9.019722 -3.054349
v -50.308 8.940509 -3.054349
v -50.25325 8.940509 -3.054349
v -50.308 9.019722 -3.054349
v -50.25325 9.019722 -3.054349
v -50.25325 8.940509 -3.054349
v -50.25325 8.940509 -0.008999944
v -50.25325 9.019722 -3.054349
v -50.25325 9.019722 -0.008999944
v -50.25325 9.019722 -0.008999944
v -50.308 9.019722 -0.008999944
v -50.25325 9.019722 -3.054349
v -50.308 9.019722 -3.054349
v -50.25325 8.940509 -3.054349
v -50.308 8.940509 -3.054349
v -50.25325 8.940509 -0.008999944
v -50.308 8.940509 -0.008999944
vn 0 0 0.5773503
vn 0 0 0.5773503
vn 0 0 0.5773503
vn 0 0 0.5773503
vn -0.5773503 0 0
vn -0.5773503 0 0
vn -0.5773503 0 0
vn -0.5773503 0 0
vn 0 0 -0.5773503
vn 0 0 -0.5773503
vn 0 0 -0.5773503
vn 0 0 -0.5773503
vn 0.5773503 0 0
vn 0.5773503 0 0
vn 0.5773503 0 0
vn 0.5773503 0 0
vn 0 0.5773503 0
vn 0 0.5773503 0
vn 0 0.5773503 0
vn 0 0.5773503 0
vn 0 -0.5773503 0
vn 0 -0.5773503 0
vn 0 -0.5773503 0
vn 0 -0.5773503 0
vt 0.05474472 0
vt 0 0
vt 0.05474472 0.07921362
vt 0 0.07921362
vt 3.04535 0
vt 0 0
vt 3.04535 0.07921362
vt 0 0.07921362
vt 0.05474472 0
vt 0 0
vt 0.05474472 0.07921362
vt 0 0.07921362
vt 3.04535 0
vt 0 0
vt 3.04535 0.07921362
vt 0 0.07921362
vt 0 3.04535
vt 0.05474472 3.04535
vt 0 0
vt 0.05474472 0
vt 0.05474472 0
vt 0 0
vt 0.05474472 3.04535
vt 0 3.04535
usemtl Default_Prototype
f 75/75/75 74/74/74 73/73/73
f 75/75/75 76/76/76 74/74/74
f 79/79/79 78/78/78 77/77/77
f 79/79/79 80/80/80 78/78/78
f 83/83/83 82/82/82 81/81/81
f 83/83/83 84/84/84 82/82/82
f 87/87/87 86/86/86 85/85/85
f 87/87/87 88/88/88 86/86/86
f 91/91/91 90/90/90 89/89/89
f 91/91/91 92/92/92 90/90/90
f 95/95/95 94/94/94 93/93/93
f 95/95/95 96/96/96 94/94/94
