# Export of Level 
# from Aaro4130 OBJ Exporter v2.0
mtllib umbrella.mtl
g Umbrella Bottom (2)
v -12.05891 3.222794 -2.066927
v -14.93379 3.222794 -2.066927
v -13.30787 3.761399 -3.188371
v -13.64006 3.768448 -3.188371
v -14.93379 3.222794 -2.066927
v -14.93379 3.222794 -4.693813
v -13.64006 3.768448 -3.188371
v -13.64006 3.768513 -3.602778
v -14.93379 3.222794 -4.693813
v -12.05891 3.222794 -4.693813
v -13.64006 3.768513 -3.602778
v -13.30787 3.761464 -3.602778
v -12.05891 3.222794 -4.693813
v -12.05891 3.222794 -2.066927
v -13.30787 3.761464 -3.602778
v -13.30787 3.761399 -3.188371
v -13.30787 3.761399 -3.188371
v -13.64006 3.768448 -3.188371
v -13.30787 3.761464 -3.602778
v -13.64006 3.768513 -3.602778
v -12.05891 3.222794 -4.693813
v -14.93379 3.222794 -4.693813
v -12.05891 3.222794 -2.066927
v -14.93379 3.222794 -2.066927
vn 0 0.520438 0.2499552
vn 0.001142571 0.5197887 0.2512999
vn 0.001142571 0.5197887 0.2512999
vn 0.01090829 0.5140144 0.2626853
vn -0.2243686 0.53197 0
vn -0.2243797 0.5319653 1.132572E-05
vn -0.2243797 0.5319653 1.132572E-05
vn -0.2244506 0.5319353 8.31136E-05
vn 0 0.5163594 -0.2582754
vn 0.001136465 0.5170158 -0.2569567
vn 0.001136465 0.5170158 -0.2569567
vn 0.01108897 0.5225338 -0.2452934
vn 0.2286489 0.5301444 0
vn 0.2286371 0.5301493 1.128849E-05
vn 0.2286371 0.5301493 1.128849E-05
vn 0.2285629 0.5301814 8.285006E-05
vn 0.01224957 0.5772203 9.024106E-05
vn 0.01224955 0.5772203 9.021821E-05
vn 0.01224955 0.5772203 9.021821E-05
vn 0.01224952 0.5772203 9.019537E-05
vn 0 -0.5773503 0
vn 0 -0.5773503 0
vn 0 -0.5773503 0
vn 0 -0.5773503 0
vt 0 1.133024
vt 2.611835 1.133024
vt 1.134684 0.002772748
vt 1.436477 0
vt 1.275646 2.386538
vt 1.275646 0
vt 2.285838E-05 1.367701
vt 0 0.9912103
vt 2.611835 0
vt 0 0
vt 1.436477 1.108289
vt 1.134684 1.105424
vt 0 0
vt 0 2.386538
vt 1.235721 0.9912103
vt 1.235697 1.367701
vt 0 0.376491
vt 0.3018609 0.376491
vt 1.221895E-06 0
vt 0.3018622 0
vt 2.611835 0
vt 0 0
vt 2.611835 2.386538
vt 0 2.386538
usemtl Default_Prototype
f 3/3/3 2/2/2 1/1/1
f 3/3/3 4/4/4 2/2/2
f 7/7/7 6/6/6 5/5/5
f 7/7/7 8/8/8 6/6/6
f 11/11/11 10/10/10 9/9/9
f 11/11/11 12/12/12 10/10/10
f 15/15/15 14/14/14 13/13/13
f 15/15/15 16/16/16 14/14/14
f 19/19/19 18/18/18 17/17/17
f 19/19/19 20/20/20 18/18/18
f 23/23/23 22/22/22 21/21/21
f 23/23/23 24/24/24 22/22/22
g Umbrella Bottom (1)
v -13.21086 1.114432 -3.235739
v -13.7066 1.114432 -3.235739
v -13.21086 1.137862 -3.235739
v -13.7066 1.137862 -3.235739
v -13.7066 1.114432 -3.235739
v -13.7066 1.114432 -3.733053
v -13.7066 1.137862 -3.235739
v -13.7066 1.137862 -3.733053
v -13.7066 1.114432 -3.733053
v -13.21086 1.114432 -3.733053
v -13.7066 1.137862 -3.733053
v -13.21086 1.137862 -3.733053
v -13.21086 1.114432 -3.733053
v -13.21086 1.114432 -3.235739
v -13.21086 1.137862 -3.733053
v -13.21086 1.137862 -3.235739
v -13.21086 1.137862 -3.235739
v -13.7066 1.137862 -3.235739
v -13.21086 1.137862 -3.733053
v -13.7066 1.137862 -3.733053
v -13.21086 1.114432 -3.733053
v -13.7066 1.114432 -3.733053
v -13.21086 1.114432 -3.235739
v -13.7066 1.114432 -3.235739
vn 0 0 0.5773503
vn 0 0 0.5773503
vn 0 0 0.5773503
vn 0 0 0.5773503
vn -0.5773502 0 0
vn -0.5773502 0 0
vn -0.5773502 0 0
vn -0.5773502 0 0
vn 0 0 -0.5773503
vn 0 0 -0.5773503
vn 0 0 -0.5773503
vn 0 0 -0.5773503
vn 0.5773502 0 0
vn 0.5773502 0 0
vn 0.5773502 0 0
vn 0.5773502 0 0
vn 0 0.5773503 0
vn 0 0.5773503 0
vn 0 0.5773503 0
vn 0 0.5773503 0
vn 0 -0.5773503 0
vn 0 -0.5773503 0
vn 0 -0.5773503 0
vn 0 -0.5773503 0
vt 0.5581284 0
vt 0 0
vt 0.5581284 0.02637923
vt 0 0.02637923
vt 0.5599043 0
vt 0 0
vt 0.5599043 0.02637923
vt 0 0.02637923
vt 0.5581284 0
vt 0 0
vt 0.5581284 0.02637923
vt 0 0.02637923
vt 0.5599043 0
vt 0 0
vt 0.5599043 0.02637923
vt 0 0.02637923
vt 0 0.5599043
vt 0.5581284 0.5599043
vt 0 0
vt 0.5581284 0
vt 0.5581284 0
vt 0 0
vt 0.5581284 0.5599043
vt 0 0.5599043
usemtl Default_Prototype
f 27/27/27 26/26/26 25/25/25
f 27/27/27 28/28/28 26/26/26
f 31/31/31 30/30/30 29/29/29
f 31/31/31 32/32/32 30/30/30
f 35/35/35 34/34/34 33/33/33
f 35/35/35 36/36/36 34/34/34
f 39/39/39 38/38/38 37/37/37
f 39/39/39 40/40/40 38/38/38
f 43/43/43 42/42/42 41/41/41
f 43/43/43 44/44/44 42/42/42
f 47/47/47 46/46/46 45/45/45
f 47/47/47 48/48/48 46/46/46
g Umbrella
v -13.42577 1.140248 -3.476388
v -13.45928 1.140248 -3.476388
v -13.42577 3.220767 -3.476388
v -13.45928 3.220767 -3.476388
v -13.45928 1.140248 -3.476388
v -13.45928 1.140248 -3.50898
v -13.45928 3.220767 -3.476388
v -13.45928 3.220767 -3.50898
v -13.45928 1.140248 -3.50898
v -13.42577 1.140248 -3.50898
v -13.45928 3.220767 -3.50898
v -13.42577 3.220767 -3.50898
v -13.42577 1.140248 -3.50898
v -13.42577 1.140248 -3.476388
v -13.42577 3.220767 -3.50898
v -13.42577 3.220767 -3.476388
v -13.42577 3.220767 -3.476388
v -13.45928 3.220767 -3.476388
v -13.42577 3.220767 -3.50898
v -13.45928 3.220767 -3.50898
v -13.42577 1.140248 -3.50898
v -13.45928 1.140248 -3.50898
v -13.42577 1.140248 -3.476388
v -13.45928 1.140248 -3.476388
vn 0 0 0.5773503
vn 0 0 0.5773503
vn 0 0 0.5773503
vn 0 0 0.5773503
vn -0.5773503 0 0
vn -0.5773503 0 0
vn -0.5773503 0 0
vn -0.5773503 0 0
vn 0 0 -0.5773503
vn 0 0 -0.5773503
vn 0 0 -0.5773503
vn 0 0 -0.5773503
vn 0.5773503 0 0
vn 0.5773503 0 0
vn 0.5773503 0 0
vn 0.5773503 0 0
vn 0 0.5773503 0
vn 0 0.5773503 0
vn 0 0.5773503 0
vn 0 0.5773503 0
vn 0 -0.5773503 0
vn 0 -0.5773503 0
vn 0 -0.5773503 0
vn 0 -0.5773503 0
vt 0.03043979 0
vt 0 0
vt 0.03043979 1.890159
vt 0 1.890159
vt 0.02960963 0
vt 0 0
vt 0.02960963 1.890159
vt 0 1.890159
vt 0.03043979 0
vt 0 0
vt 0.03043979 1.890159
vt 0 1.890159
vt 0.02960963 0
vt 0 0
vt 0.02960963 1.890159
vt 0 1.890159
vt 0 0.02960963
vt 0.03043979 0.02960963
vt 0 0
vt 0.03043979 0
vt 0.03043979 0
vt 0 0
vt 0.03043979 0.02960963
vt 0 0.02960963
usemtl Default_Prototype
f 51/51/51 50/50/50 49/49/49
f 51/51/51 52/52/52 50/50/50
f 55/55/55 54/54/54 53/53/53
f 55/55/55 56/56/56 54/54/54
f 59/59/59 58/58/58 57/57/57
f 59/59/59 60/60/60 58/58/58
f 63/63/63 62/62/62 61/61/61
f 63/63/63 64/64/64 62/62/62
f 67/67/67 66/66/66 65/65/65
f 67/67/67 68/68/68 66/66/66
f 71/71/71 70/70/70 69/69/69
f 71/71/71 72/72/72 70/70/70
