# Export of Level 
# from Aaro4130 OBJ Exporter v2.0
mtllib Window Fencing prefab.mtl
g Window Fencing
v -40.30872 12.77 32.81549
v -40.59 12.77 32.81549
v -40.30872 13.77 32.81549
v -40.59 13.77 32.81549
v -40.59 12.77 32.81549
v -40.59 12.77 31.86254
v -40.59 13.77 32.81549
v -40.59 13.77 31.86254
v -40.59 12.77 31.59826
v -40.30872 12.77 31.59826
v -40.59 13.77 31.59826
v -40.30872 13.77 31.59826
v -40.30872 12.77 31.86254
v -40.30872 12.77 32.81549
v -40.30872 13.77 31.86254
v -40.30872 13.77 32.81549
v -40.30872 13.77 32.81549
v -40.59 13.77 32.81549
v -40.30872 13.77 31.86254
v -40.59 13.77 31.86254
v -40.30872 12.57078 31.86254
v -40.59 12.57078 31.86254
v -40.30872 12.57078 32.81549
v -40.59 12.57078 32.81549
v -40.59 12.57078 31.86254
v -40.30872 12.57078 31.86254
v -40.59 12.57078 31.59826
v -40.30872 12.57078 31.59826
v -40.59 13.77 31.86254
v -40.59 12.77 31.86254
v -40.59 13.77 31.59826
v -40.59 12.77 31.59826
v -37.25622 12.77 31.86254
v -37.25622 13.77 31.86254
v -37.25622 12.77 31.59826
v -37.25622 13.77 31.59826
v -40.30872 13.77 31.86254
v -40.59 13.77 31.86254
v -40.30872 13.77 31.59826
v -40.59 13.77 31.59826
v -40.30872 12.77 31.86254
v -40.30872 13.77 31.86254
v -37.52688 12.77 31.86254
v -37.52688 13.77 31.86254
v -40.30872 12.77 31.59826
v -40.30872 12.77 31.86254
v -37.52688 12.77 31.59826
v -37.52688 12.77 31.86254
v -40.30872 13.77 31.86254
v -40.30872 13.77 31.59826
v -37.52688 13.77 31.86254
v -37.52688 13.77 31.59826
v -40.30872 13.77 31.59826
v -40.30872 12.77 31.59826
v -37.52688 13.77 31.59826
v -37.52688 12.77 31.59826
v -37.52688 12.77 32.81629
v -37.52688 13.77 32.81629
v -37.25622 12.77 32.81629
v -37.25622 13.77 32.81629
v -37.52688 12.77 31.59826
v -37.52688 12.77 31.86254
v -37.25622 12.77 31.59826
v -37.25622 12.77 31.86254
v -37.52688 13.77 31.86254
v -37.52688 13.77 31.59826
v -37.25622 13.77 31.86254
v -37.25622 13.77 31.59826
v -37.52688 13.77 31.59826
v -37.52688 12.77 31.59826
v -37.25622 13.77 31.59826
v -37.25622 12.77 31.59826
v -37.52688 12.77 31.86254
v -37.52688 13.77 31.86254
v -37.52688 12.77 32.81629
v -37.52688 13.77 32.81629
v -37.25622 12.77 31.86254
v -37.52688 12.77 31.86254
v -37.25622 12.77 32.81629
v -37.52688 12.77 32.81629
v -37.52688 13.77 31.86254
v -37.25622 13.77 31.86254
v -37.52688 13.77 32.81629
v -37.25622 13.77 32.81629
v -37.25622 13.77 31.86254
v -37.25622 12.77 31.86254
v -37.25622 13.77 32.81629
v -37.25622 12.77 32.81629
v -40.59 12.77 31.59826
v -40.59 12.77 31.86254
v -40.59 12.57078 31.59826
v -40.59 12.57078 31.86254
v -37.25387 12.77 32.81549
v -37.25387 12.77 31.86254
v -37.25387 12.57078 32.81549
v -37.25387 12.57078 31.86254
v -40.59 12.77 31.86254
v -40.59 12.77 32.81549
v -40.59 12.57078 31.86254
v -40.59 12.57078 32.81549
v -40.59 12.77 32.81549
v -40.30872 12.77 32.81549
v -40.59 12.57078 32.81549
v -40.30872 12.57078 32.81549
v -37.25387 12.77 31.86254
v -37.25387 12.77 31.59826
v -37.25387 12.57078 31.86254
v -37.25387 12.57078 31.59826
v -40.30872 12.77 31.59826
v -40.59 12.77 31.59826
v -40.30872 12.57078 31.59826
v -40.59 12.57078 31.59826
v -40.30872 12.77 32.81549
v -40.30872 12.77 31.86254
v -37.25387 12.77 32.81549
v -37.25387 12.77 31.86254
v -40.30872 12.57078 32.81549
v -40.30872 12.77 32.81549
v -37.25387 12.57078 32.81549
v -37.25387 12.77 32.81549
v -40.30872 12.77 31.59826
v -40.30872 12.57078 31.59826
v -37.25387 12.77 31.59826
v -37.25387 12.57078 31.59826
v -40.30872 12.57078 31.86254
v -40.30872 12.57078 32.81549
v -37.25387 12.57078 31.86254
v -37.25387 12.57078 32.81549
v -40.30872 12.77 31.86254
v -40.30872 12.77 31.59826
v -37.25387 12.77 31.86254
v -37.25387 12.77 31.59826
v -40.30872 12.57078 31.59826
v -40.30872 12.57078 31.86254
v -37.25387 12.57078 31.59826
v -37.25387 12.57078 31.86254
vn 0 0 0.5773503
vn 0 0 0.5773503
vn 0 0 0.5773503
vn 0 0 0.5773503
vn -0.5773503 0 0
vn -0.5773503 0 0
vn -0.5773503 0 0
vn -0.5773503 0 0
vn 0 0 -0.5773503
vn 0 0 -0.5773503
vn 0 0 -0.5773503
vn 0 0 -0.5773503
vn 0.5773503 0 0
vn 0.5773503 0 0
vn 0.5773503 0 0
vn 0.5773503 0 0
vn 0 0.5773503 0
vn 0 0.5773503 0
vn 0 0.5773503 0
vn 0 0.5773503 0
vn 0 -0.5773503 0
vn 0 -0.5773503 0
vn 0 -0.5773503 0
vn 0 -0.5773503 0
vn 0 -0.5773503 0
vn 0 -0.5773503 0
vn 0 -0.5773503 0
vn 0 -0.5773503 0
vn -0.5773503 0 0
vn -0.5773503 0 0
vn -0.5773503 0 0
vn -0.5773503 0 0
vn 0.5773503 0 0
vn 0.5773503 0 0
vn 0.5773503 0 0
vn 0.5773503 0 0
vn 0 0.5773503 0
vn 0 0.5773503 0
vn 0 0.5773503 0
vn 0 0.5773503 0
vn 0 0 0.5773503
vn 0 0 0.5773503
vn 0 0 0.5773503
vn 0 0 0.5773503
vn 0 -0.5773503 0
vn 0 -0.5773503 0
vn 0 -0.5773503 0
vn 0 -0.5773503 0
vn 0 0.5773503 0
vn 0 0.5773503 0
vn 0 0.5773503 0
vn 0 0.5773503 0
vn 0 0 -0.5773503
vn 0 0 -0.5773503
vn 0 0 -0.5773503
vn 0 0 -0.5773503
vn 0 0 0.5773503
vn 0 0 0.5773503
vn 0 0 0.5773503
vn 0 0 0.5773503
vn 0 -0.5773503 0
vn 0 -0.5773503 0
vn 0 -0.5773503 0
vn 0 -0.5773503 0
vn 0 0.5773503 0
vn 0 0.5773503 0
vn 0 0.5773503 0
vn 0 0.5773503 0
vn 0 0 -0.5773503
vn 0 0 -0.5773503
vn 0 0 -0.5773503
vn 0 0 -0.5773503
vn -0.5773503 0 0
vn -0.5773503 0 0
vn -0.5773503 0 0
vn -0.5773503 0 0
vn 0 -0.5773503 0
vn 0 -0.5773503 0
vn 0 -0.5773503 0
vn 0 -0.5773503 0
vn 0 0.5773503 0
vn 0 0.5773503 0
vn 0 0.5773503 0
vn 0 0.5773503 0
vn 0.5773503 0 0
vn 0.5773503 0 0
vn 0.5773503 0 0
vn 0.5773503 0 0
vn -0.5773503 0 0
vn -0.5773503 0 0
vn -0.5773503 0 0
vn -0.5773503 0 0
vn 0.5773502 0 0
vn 0.5773502 0 0
vn 0.5773502 0 0
vn 0.5773502 0 0
vn -0.5773502 0 0
vn -0.5773502 0 0
vn -0.5773502 0 0
vn -0.5773502 0 0
vn 0 0 0.5773503
vn 0 0 0.5773503
vn 0 0 0.5773503
vn 0 0 0.5773503
vn 0.5773503 0 0
vn 0.5773503 0 0
vn 0.5773503 0 0
vn 0.5773503 0 0
vn 0 0 -0.5773503
vn 0 0 -0.5773503
vn 0 0 -0.5773503
vn 0 0 -0.5773503
vn 0 0.5773503 0
vn 0 0.5773503 0
vn 0 0.5773503 0
vn 0 0.5773503 0
vn 0 0 0.5773503
vn 0 0 0.5773503
vn 0 0 0.5773503
vn 0 0 0.5773503
vn 0 0 -0.5773503
vn 0 0 -0.5773503
vn 0 0 -0.5773503
vn 0 0 -0.5773503
vn 0 -0.5773503 0
vn 0 -0.5773503 0
vn 0 -0.5773503 0
vn 0 -0.5773503 0
vn 0 0.5773503 0
vn 0 0.5773503 0
vn 0 0.5773503 0
vn 0 0.5773503 0
vn 0 -0.5773503 0
vn 0 -0.5773503 0
vn 0 -0.5773503 0
vn 0 -0.5773503 0
vt 0.2812805 0
vt 0 0
vt 0.2812805 1
vt 0 1
vt 0.9529533 0
vt 0 0
vt 0.9529533 1
vt 0 1
vt 0.2812805 0
vt 0 0
vt 0.2812805 1
vt 0 1
vt 0.9529533 0
vt 0 0
vt 0.9529533 1
vt 0 1
vt 0 0.9529533
vt 0.2812805 0.9529533
vt 0 0
vt 0.2812805 0
vt 0.2812805 0
vt 0 0
vt 0.2812805 0.9529533
vt 0 0.9529533
vt 0 0.2642822
vt 0.2812805 0.2642822
vt 0 0
vt 0.2812805 0
vt 0.2642822 1
vt 0.2642822 0
vt 0 1
vt 0 0
vt 0 0
vt 0 1
vt 0.2642822 0
vt 0.2642822 1
vt 0 0.2642822
vt 0.2812805 0.2642822
vt 0 0
vt 0.2812805 0
vt 0 0
vt 0 1
vt 2.781837 0
vt 2.781837 1
vt 0 0
vt 0 0.2642822
vt 2.781837 0
vt 2.781837 0.2642822
vt 2.781837 0.2642822
vt 2.781837 0
vt 0 0.2642822
vt 0 0
vt 2.781837 1
vt 2.781837 0
vt 0 1
vt 0 0
vt 0 0
vt 0 1
vt 0.2706642 0
vt 0.2706642 1
vt 0 0
vt 0 0.2642822
vt 0.2706642 0
vt 0.2706642 0.2642822
vt 0.2706642 0.2642822
vt 0.2706642 0
vt 0 0.2642822
vt 0 0
vt 0.2706642 1
vt 0.2706642 0
vt 0 1
vt 0 0
vt 0 0
vt 0 1
vt 0.9537468 0
vt 0.9537468 1
vt 0.2706642 0
vt 0 0
vt 0.2706642 0.9537468
vt 0 0.9537468
vt 0.2706642 0
vt 0 0
vt 0.2706642 0.9537468
vt 0 0.9537468
vt 0.9537468 1
vt 0.9537468 0
vt 0 1
vt 0 0
vt 0 0.1992168
vt 0.2642822 0.1992168
vt 0 0
vt 0.2642822 0
vt 0 0.1992168
vt 0.9529533 0.1992168
vt 0 0
vt 0.9529533 0
vt 0 0.1992168
vt 0.9529533 0.1992168
vt 0 0
vt 0.9529533 0
vt 0 0.1992168
vt 0.2812805 0.1992168
vt 0 0
vt 0.2812805 0
vt 0 0.1992168
vt 0.2642822 0.1992168
vt 0 0
vt 0.2642822 0
vt 0 0.1992168
vt 0.2812805 0.1992168
vt 0 0
vt 0.2812805 0
vt 3.054852 0.9529533
vt 3.054852 0
vt 0 0.9529533
vt 0 0
vt 0 0
vt 0 0.1992168
vt 3.054852 0
vt 3.054852 0.1992168
vt 3.054852 0.1992168
vt 3.054852 0
vt 0 0.1992168
vt 0 0
vt 0 0
vt 0 0.9529533
vt 3.054852 0
vt 3.054852 0.9529533
vt 3.054852 0.2642822
vt 3.054852 0
vt 0 0.2642822
vt 0 0
vt 0 0
vt 0 0.2642822
vt 3.054852 0
vt 3.054852 0.2642822
usemtl Default_Prototype
f 3/3/3 2/2/2 1/1/1
f 3/3/3 4/4/4 2/2/2
f 7/7/7 6/6/6 5/5/5
f 7/7/7 8/8/8 6/6/6
f 11/11/11 10/10/10 9/9/9
f 11/11/11 12/12/12 10/10/10
f 15/15/15 14/14/14 13/13/13
f 15/15/15 16/16/16 14/14/14
f 19/19/19 18/18/18 17/17/17
f 19/19/19 20/20/20 18/18/18
f 23/23/23 22/22/22 21/21/21
f 23/23/23 24/24/24 22/22/22
f 27/27/27 26/26/26 25/25/25
f 27/27/27 28/28/28 26/26/26
f 31/31/31 30/30/30 29/29/29
f 31/31/31 32/32/32 30/30/30
f 35/35/35 34/34/34 33/33/33
f 35/35/35 36/36/36 34/34/34
f 39/39/39 38/38/38 37/37/37
f 39/39/39 40/40/40 38/38/38
f 43/43/43 42/42/42 41/41/41
f 43/43/43 44/44/44 42/42/42
f 47/47/47 46/46/46 45/45/45
f 47/47/47 48/48/48 46/46/46
f 51/51/51 50/50/50 49/49/49
f 51/51/51 52/52/52 50/50/50
f 55/55/55 54/54/54 53/53/53
f 55/55/55 56/56/56 54/54/54
f 59/59/59 58/58/58 57/57/57
f 59/59/59 60/60/60 58/58/58
f 63/63/63 62/62/62 61/61/61
f 63/63/63 64/64/64 62/62/62
f 67/67/67 66/66/66 65/65/65
f 67/67/67 68/68/68 66/66/66
f 71/71/71 70/70/70 69/69/69
f 71/71/71 72/72/72 70/70/70
f 75/75/75 74/74/74 73/73/73
f 75/75/75 76/76/76 74/74/74
f 79/79/79 78/78/78 77/77/77
f 79/79/79 80/80/80 78/78/78
f 83/83/83 82/82/82 81/81/81
f 83/83/83 84/84/84 82/82/82
f 87/87/87 86/86/86 85/85/85
f 87/87/87 88/88/88 86/86/86
f 91/91/91 90/90/90 89/89/89
f 91/91/91 92/92/92 90/90/90
f 95/95/95 94/94/94 93/93/93
f 95/95/95 96/96/96 94/94/94
f 99/99/99 98/98/98 97/97/97
f 99/99/99 100/100/100 98/98/98
f 103/103/103 102/102/102 101/101/101
f 103/103/103 104/104/104 102/102/102
f 107/107/107 106/106/106 105/105/105
f 107/107/107 108/108/108 106/106/106
f 111/111/111 110/110/110 109/109/109
f 111/111/111 112/112/112 110/110/110
f 115/115/115 114/114/114 113/113/113
f 115/115/115 116/116/116 114/114/114
f 119/119/119 118/118/118 117/117/117
f 119/119/119 120/120/120 118/118/118
f 123/123/123 122/122/122 121/121/121
f 123/123/123 124/124/124 122/122/122
f 127/127/127 126/126/126 125/125/125
f 127/127/127 128/128/128 126/126/126
f 131/131/131 130/130/130 129/129/129
f 131/131/131 132/132/132 130/130/130
f 135/135/135 134/134/134 133/133/133
f 135/135/135 136/136/136 134/134/134
